<svg width="74" height="87" viewBox="0 0 74 87" fill="none" xmlns="http://www.w3.org/2000/svg">
<path d="M72.1328 17.2422L56.5078 1.61719C55.6193 0.749471 54.4294 0.259488 53.1875 0.25H21.9375C19.8687 0.260267 17.8875 1.08666 16.4246 2.54957C14.9617 4.01248 14.1353 5.99366 14.125 8.0625V15.875H7.875C5.80616 15.8853 3.82498 16.7117 2.36207 18.1746C0.899164 19.6375 0.0727674 21.6187 0.0625 23.6875V78.375C0.0727674 80.4438 0.899164 82.425 2.36207 83.8879C3.82498 85.3508 5.80616 86.1772 7.875 86.1875H50.0625C52.1313 86.1772 54.1125 85.3508 55.5754 83.8879C57.0383 82.425 57.8647 80.4438 57.875 78.375V70.5625H65.6875C67.7563 70.5522 69.7375 69.7258 71.2004 68.2629C72.6633 66.8 73.4897 64.8188 73.5 62.75V20.5625C73.4905 19.3206 73.0005 18.1307 72.1328 17.2422ZM48.5 76.8125H9.4375V25.25H35.6094L48.5 38.1406V76.8125ZM64.125 61.1875H57.875V36.1875C57.8655 34.9456 57.3755 33.7557 56.5078 32.8672L40.8828 17.2422C39.9943 16.3745 38.8044 15.8845 37.5625 15.875H23.5V9.625H51.2344L64.125 22.5156V61.1875ZM42.25 50.25C42.25 51.4932 41.7561 52.6855 40.8771 53.5646C39.998 54.4436 38.8057 54.9375 37.5625 54.9375H20.375C19.1318 54.9375 17.9395 54.4436 17.0604 53.5646C16.1814 52.6855 15.6875 51.4932 15.6875 50.25C15.6875 49.0068 16.1814 47.8145 17.0604 46.9354C17.9395 46.0564 19.1318 45.5625 20.375 45.5625H37.5625C38.8057 45.5625 39.998 46.0564 40.8771 46.9354C41.7561 47.8145 42.25 49.0068 42.25 50.25ZM42.25 65.875C42.25 67.1182 41.7561 68.3105 40.8771 69.1896C39.998 70.0686 38.8057 70.5625 37.5625 70.5625H20.375C19.1318 70.5625 17.9395 70.0686 17.0604 69.1896C16.1814 68.3105 15.6875 67.1182 15.6875 65.875C15.6875 64.6318 16.1814 63.4395 17.0604 62.5604C17.9395 61.6814 19.1318 61.1875 20.375 61.1875H37.5625C38.8057 61.1875 39.998 61.6814 40.8771 62.5604C41.7561 63.4395 42.25 64.6318 42.25 65.875Z" fill="white"/>
</svg>
