<svg width="82" height="84" viewBox="0 0 82 84" fill="none" xmlns="http://www.w3.org/2000/svg">
<path d="M81.9167 62.8335L61.0834 83.6668L46.5001 69.0835L52.7501 62.8335L61.0834 71.1668L75.6667 56.5835L81.9167 62.8335ZM9.00008 0.333496C6.78994 0.333496 4.67033 1.21147 3.10752 2.77427C1.54472 4.33708 0.666748 6.45669 0.666748 8.66683V75.3335C0.666748 79.9585 4.37508 83.6668 9.00008 83.6668H41.5417C40.0417 81.0835 39.0001 78.2502 38.5001 75.3335H9.00008V8.66683H38.1667V29.5002H59.0001V46.5002C60.3751 46.2918 61.7917 46.1668 63.1667 46.1668C64.5834 46.1668 65.9584 46.2918 67.3334 46.5002V25.3335L42.3334 0.333496H9.00008ZM17.3334 42.0002V50.3335H50.6667V42.0002H17.3334ZM17.3334 58.6668V67.0002H38.1667V58.6668H17.3334Z" fill="white"/>
</svg>
