<svg width="100" height="68" viewBox="0 0 100 68" fill="none" xmlns="http://www.w3.org/2000/svg">
<path d="M16.6667 13.1353C16.6667 10.8436 18.5417 8.96859 20.8333 8.96859H87.5C89.7917 8.96859 91.6667 7.09359 91.6667 4.80192C91.6667 2.51025 89.7917 0.635254 87.5 0.635254H16.6667C12.0833 0.635254 8.33333 4.38525 8.33333 8.96859V54.8019H6.25C2.79167 54.8019 0 57.5936 0 61.0519C0 64.5103 2.79167 67.3019 6.25 67.3019H58.3333V54.8019H16.6667V13.1353ZM95.8333 17.3019H70.8333C68.5417 17.3019 66.6667 19.1769 66.6667 21.4686V63.1353C66.6667 65.4269 68.5417 67.3019 70.8333 67.3019H95.8333C98.125 67.3019 100 65.4269 100 63.1353V21.4686C100 19.1769 98.125 17.3019 95.8333 17.3019ZM91.6667 54.8019H75V25.6353H91.6667V54.8019Z" fill="white"/>
</svg>
