<svg width="89" height="80" viewBox="0 0 89 80" fill="none" xmlns="http://www.w3.org/2000/svg">
<path d="M61.625 35.3125H80.375C82.4438 35.3022 84.425 34.4758 85.8879 33.0129C87.3508 31.55 88.1772 29.5688 88.1875 27.5V8.75C88.1772 6.68116 87.3508 4.69998 85.8879 3.23707C84.425 1.77416 82.4438 0.947767 80.375 0.9375H61.625C59.5562 0.947767 57.575 1.77416 56.1121 3.23707C54.6492 4.69998 53.8228 6.68116 53.8125 8.75V13.4375H52.25C48.5204 13.4375 44.9435 14.9191 42.3063 17.5563C39.6691 20.1935 38.1875 23.7704 38.1875 27.5V35.3125H31.9375V32.1875C31.9272 30.1187 31.1008 28.1375 29.6379 26.6746C28.175 25.2117 26.1938 24.3853 24.125 24.375H8.5C6.43116 24.3853 4.44998 25.2117 2.98707 26.6746C1.52416 28.1375 0.697767 30.1187 0.6875 32.1875V47.8125C0.697767 49.8813 1.52416 51.8625 2.98707 53.3254C4.44998 54.7883 6.43116 55.6147 8.5 55.625H24.125C26.1938 55.6147 28.175 54.7883 29.6379 53.3254C31.1008 51.8625 31.9272 49.8813 31.9375 47.8125V44.6875H38.1875V52.5C38.1875 56.2296 39.6691 59.8065 42.3063 62.4437C44.9435 65.0809 48.5204 66.5625 52.25 66.5625H53.8125V71.25C53.8228 73.3188 54.6492 75.3 56.1121 76.7629C57.575 78.2258 59.5562 79.0522 61.625 79.0625H80.375C82.4438 79.0522 84.425 78.2258 85.8879 76.7629C87.3508 75.3 88.1772 73.3188 88.1875 71.25V52.5C88.1772 50.4312 87.3508 48.45 85.8879 46.9871C84.425 45.5242 82.4438 44.6978 80.375 44.6875H61.625C59.5562 44.6978 57.575 45.5242 56.1121 46.9871C54.6492 48.45 53.8228 50.4312 53.8125 52.5V57.1875H52.25C51.0068 57.1875 49.8145 56.6936 48.9354 55.8146C48.0564 54.9355 47.5625 53.7432 47.5625 52.5V27.5C47.5625 26.2568 48.0564 25.0645 48.9354 24.1854C49.8145 23.3064 51.0068 22.8125 52.25 22.8125H53.8125V27.5C53.8228 29.5688 54.6492 31.55 56.1121 33.0129C57.575 34.4758 59.5562 35.3022 61.625 35.3125ZM22.5625 46.25H10.0625V33.75H22.5625V46.25ZM63.1875 54.0625H78.8125V69.6875H63.1875V54.0625ZM63.1875 10.3125H78.8125V25.9375H63.1875V10.3125Z" fill="white"/>
</svg>
