<svg width="250" height="188" viewBox="0 0 250 188" fill="none" xmlns="http://www.w3.org/2000/svg">
<path d="M23.4375 0.25C17.2215 0.25 11.2601 2.7193 6.86468 7.11469C2.4693 11.5101 0 17.4715 0 23.6875L0 54.9375H93.75C95.822 54.9375 97.8091 55.7606 99.2743 57.2257C100.739 58.6909 101.562 60.678 101.562 62.75C101.562 66.7031 102.812 72.8125 106.344 77.7188C109.578 82.2188 115.047 86.1875 125 86.1875C134.953 86.1875 140.422 82.2188 143.656 77.7188C147.188 72.8125 148.438 66.7031 148.438 62.75C148.438 60.678 149.261 58.6909 150.726 57.2257C152.191 55.7606 154.178 54.9375 156.25 54.9375H250V23.6875C250 17.4715 247.531 11.5101 243.135 7.11469C238.74 2.7193 232.779 0.25 226.562 0.25H23.4375Z" fill="white"/>
<path d="M250 70.5625H163.266C162.145 76.4209 159.785 81.972 156.344 86.8437C150.203 95.375 140.047 101.812 125 101.812C109.953 101.812 99.7969 95.375 93.6562 86.8437C90.2154 81.9718 87.8554 76.4208 86.7344 70.5625H0V164.312C0 170.529 2.4693 176.49 6.86468 180.885C11.2601 185.281 17.2215 187.75 23.4375 187.75H226.562C232.779 187.75 238.74 185.281 243.135 180.885C247.531 176.49 250 170.529 250 164.312V70.5625Z" fill="white"/>
</svg>
