<svg width="126" height="99" viewBox="0 0 126 99" fill="none" xmlns="http://www.w3.org/2000/svg">
<g opacity="0.4">
<path d="M63.886 42.0469C63.7808 41.9124 63.6463 41.8037 63.4928 41.7289C63.3393 41.6541 63.1708 41.6152 63.0001 41.6152C62.8293 41.6152 62.6608 41.6541 62.5073 41.7289C62.3538 41.8037 62.2194 41.9124 62.1142 42.0469L46.3642 61.9734C46.2343 62.1393 46.1537 62.3383 46.1317 62.5477C46.1096 62.7571 46.1469 62.9685 46.2393 63.1578C46.3317 63.347 46.4755 63.5064 46.6543 63.6178C46.833 63.7291 47.0395 63.788 47.2501 63.7875H57.6423V97.875C57.6423 98.4938 58.1485 99 58.7673 99H67.2048C67.8235 99 68.3298 98.4938 68.3298 97.875V63.8016H78.7501C79.6923 63.8016 80.2126 62.7188 79.636 61.9875L63.886 42.0469Z" fill="#545454"/>
<path d="M105.103 29.0672C98.6625 12.0797 82.2516 0 63.0281 0C43.8047 0 27.3937 12.0656 20.9531 29.0531C8.90156 32.2172 0 43.2 0 56.25C0 71.7891 12.5859 84.375 28.1109 84.375H33.75C34.3688 84.375 34.875 83.8688 34.875 83.25V74.8125C34.875 74.1937 34.3688 73.6875 33.75 73.6875H28.1109C23.3719 73.6875 18.9141 71.8031 15.5953 68.3859C12.2906 64.9828 10.5328 60.3984 10.6875 55.6453C10.8141 51.9328 12.0797 48.4453 14.3719 45.5063C16.7203 42.5109 20.0109 40.3312 23.6672 39.3609L28.9969 37.9688L30.9516 32.8219C32.1609 29.6156 33.8484 26.6203 35.9719 23.9062C38.0682 21.2162 40.5514 18.8515 43.3406 16.8891C49.1203 12.825 55.9266 10.6734 63.0281 10.6734C70.1297 10.6734 76.9359 12.825 82.7156 16.8891C85.5141 18.8578 87.9891 21.2203 90.0844 23.9062C92.2078 26.6203 93.8953 29.6297 95.1047 32.8219L97.0453 37.9547L102.361 39.3609C109.983 41.4141 115.312 48.3469 115.312 56.25C115.312 60.9047 113.498 65.2922 110.208 68.5828C108.594 70.206 106.674 71.493 104.56 72.3692C102.445 73.2454 100.178 73.6935 97.8891 73.6875H92.25C91.6312 73.6875 91.125 74.1937 91.125 74.8125V83.25C91.125 83.8688 91.6312 84.375 92.25 84.375H97.8891C113.414 84.375 126 71.7891 126 56.25C126 43.2141 117.127 32.2453 105.103 29.0672Z" fill="#545454"/>
</g>
</svg>
